<?xml version="1.0" encoding="utf-8"?>
<!-- Svg Vector Icons : http://www.onlinewebfonts.com/icon -->
<!DOCTYPE svg PUBLIC "-//W3C//DTD SVG 1.1//EN" "http://www.w3.org/Graphics/SVG/1.1/DTD/svg11.dtd">
<svg version="1.1" xmlns="http://www.w3.org/2000/svg" xmlns:xlink="http://www.w3.org/1999/xlink" x="0px" y="0px" viewBox="0 0 256 256" enable-background="new 0 0 256 256" xml:space="preserve">
<metadata> Svg Vector Icons : http://www.onlinewebfonts.com/icon </metadata>
<g><g><g><path fill="#000000" d="M97.1,10.7c-8.9,1.9-17.5,9.1-20.8,17.4c-0.6,1.3-1.1,2.5-1.3,2.8c-0.2,0.2-1.6,0-3.2-0.4c-3.5-0.9-10.6-1-14.5-0.2c-13.4,2.7-24.2,13.6-27,27c-0.8,3.9-0.7,10.9,0.2,14.7l0.8,3.1l-3.2,3.3c-5.9,6.4-8.4,12.2-8.8,20.5c-0.3,6.5,0.6,10.8,3.4,16.1l1.9,3.8l-2.7,2.1c-7.1,5.5-11.9,15.5-11.9,24.7c0,7.5,3.3,15.8,8.4,21.5l3,3.2l-0.6,2.5c-2.7,11.8,0.2,25.4,7.6,35.5c7.5,10.2,19.3,16.9,31.4,17.8l3.5,0.3L65,229c9,14.6,28.3,20.9,44.3,14.5c6.7-2.7,12.8-7.4,16.6-12.9c0.9-1.4,1.9-2.5,2.1-2.5c0.2,0,1,1,1.8,2.3c1.9,3,7.4,8.2,11,10.4c17,10.3,39.9,5,50.2-11.7l1.6-2.6l3.5-0.3c18.9-1.5,34.8-15.7,39.1-35.1c0.9-4.2,0.9-14.2,0-18l-0.6-2.8l2.2-2.3c9.6-10.2,11.9-23.9,6-36c-2.2-4.6-5.2-8.4-8.7-11.1l-2.7-2.1l1.9-3.8c2.7-5.3,3.6-9.6,3.4-16.1c-0.4-8.3-2.9-14.1-8.8-20.5l-3.2-3.3l0.8-3.1c1.1-4.4,1-11.8-0.2-16.5c-3.1-12.1-12.7-21.6-24.9-24.8c-4.4-1.2-12.4-1.3-16.4-0.2c-1.5,0.4-2.9,0.6-3,0.4c-0.2-0.2-0.7-1.5-1.3-2.8c-5.1-12.7-19.7-20.3-33.3-17.5c-6.1,1.3-13,5.4-16.4,10c-1,1.2-1.8,2.3-2,2.3c-0.1,0-1.1-1.1-2.1-2.3C119.6,12.4,107.8,8.4,97.1,10.7z M106.5,20.1c3.8,0.6,7.3,2.4,10.2,5.1c2.9,2.8,4.4,5.2,5.5,8.7c0.6,2.2,0.7,6,0.7,29.1c0,18.2-0.1,27-0.5,27.8c-0.6,1.4-2.7,2.6-4.6,2.6c-2,0-4.6,2.6-4.6,4.6c0,3.7,2.4,5.4,7,5l2.8-0.2l-0.1,22.2c-0.1,22.2-0.1,22.2-1.2,24.2c-2.5,4.7-6.8,7.7-11.7,8.2c-4.8,0.5-6.4,1.8-6.4,5.3c0,1.5,0.3,2.2,1.3,3.3c1.2,1.2,1.7,1.3,4.4,1.3c3.5,0,8.8-1.6,11.8-3.5l1.8-1.2v25.2c0,28,0,28-3.1,34.1c-2.3,4.5-7.1,9.2-11.6,11.4c-4.6,2.2-7.7,2.9-12.7,2.9c-12.1-0.1-22.6-8.5-25.6-20.3c-2.4-9.3,0-18,7.2-26.1c2.6-2.9,1.9-6.5-1.6-8c-2.4-1-4.2-0.1-7.1,3.1c-6.5,7.2-9.3,15.2-9,25.7c0.2,6.5,0.4,6.3-5,4.7c-8.2-2.5-15.9-8.5-19.9-15.4c-3.1-5.3-4.4-9.7-4.6-16.2c-0.2-6.8,0.7-11.3,3.7-17.2c1.6-3.2,2.8-4.7,6.4-8.3c3.5-3.6,5.1-4.8,8.3-6.4c6.1-3,10.5-4,17.2-3.6c3.1,0.1,6.7,0.4,8,0.6c2.3,0.2,2.5,0.2,3.8-1.1c1.6-1.6,1.8-3.9,0.7-6c-0.9-1.7-2.4-2.3-7.8-3.1c-10.5-1.6-21.7,1-30.8,7.1c-4.1,2.8-9.3,7.9-11.9,11.8l-2,3.1l-0.9-1.1c-1.7-2.1-4.1-7.6-4.5-10.5c-0.8-5.3,0.5-10.7,3.6-15.6c1.8-2.7,3.8-4.5,8.7-7.6c5.4-3.5,5.6-5,1.6-11c-3.3-4.8-4.7-8.3-5-12.6c-0.4-5.6,1.5-11.5,5.2-15.8l1.6-1.9l4.1,4c6.4,6.4,14.2,9.9,22.3,9.9c3.6,0,4.1,0,5.2-1.1c2.3-2.2,1.9-6.3-0.6-7.6c-0.6-0.3-3-0.8-5.2-1.1C48,86.8,38.9,75.9,39.6,62.6c0.4-6.4,2.6-11.4,7.1-15.9c5.2-5.1,9.8-7,17.4-7c3.6,0,5.7,0.2,7.4,0.8l2.3,0.8l0.7,3.9c1.2,5.9,3.5,10.3,8,14.8c2.9,3,4.5,4.1,7.6,5.7c6.1,3,13,4.1,15.7,2.5c2.5-1.4,3.1-5.2,1.2-7.3c-0.9-1.1-1.7-1.3-5.3-1.8c-5.5-0.8-8.8-2.4-12.2-5.8c-7.7-7.7-7.7-19.9,0-27.6c3-2.9,5.9-4.6,9.8-5.4C102.7,19.6,103.3,19.6,106.5,20.1z M156,20.2c8.3,1.5,14.6,7.9,16,16.3c1,6.1-1,12.3-5.5,16.8c-3.4,3.4-6.7,4.9-12.2,5.8c-5.1,0.7-6.4,1.8-6.4,5c0,2.1,0.5,2.9,2.3,4.1c2.4,1.7,9.5,0.5,15.7-2.5c3.1-1.5,4.7-2.7,7.6-5.7c4.5-4.5,6.9-8.9,8-14.8l0.7-3.9l2.3-0.8c3.5-1.2,12-1.1,15.7,0.3c9.4,3.5,15.6,11.7,16.2,21.7c0.3,4.8-0.4,8.3-2.4,12.4c-3.9,7.7-11.3,12.8-20.1,13.7c-3.9,0.4-5.4,1-6.2,2.6c-1.1,2-0.9,3.9,0.6,5.6c1.3,1.5,1.4,1.5,5.4,1.5c8.1,0,16-3.5,22.4-9.9l4.1-4l1.6,1.9c3.7,4.3,5.6,10.1,5.2,15.8c-0.3,4.3-1.7,7.7-5,12.6c-2.8,4.1-3.3,5.9-2.3,7.9c0.3,0.5,2.5,2.3,5.1,3.9c5.1,3.4,7.1,5.5,9.2,9.9c1.9,4.1,2.6,8.4,1.9,12.4c-0.6,3.4-2.6,8.1-4.3,10.2l-1.1,1.3l-2-3c-4-6.1-11.3-12.4-18.3-15.5c-6.8-3-16.1-4.5-23.1-3.6c-7.8,1-9.8,2.2-9.8,5.9c0,1.7,0.3,2.3,1.4,3.5c1.3,1.3,1.6,1.3,3.8,1.1c1.3-0.1,4.9-0.4,8-0.6c6.8-0.4,11.2,0.6,17.2,3.6c3.2,1.6,4.7,2.8,8.3,6.4c3.6,3.5,4.8,5.1,6.4,8.3c3,5.9,3.9,10.5,3.7,17.2c-0.2,4.5-0.5,6.3-1.5,9.3c-3.7,10.8-12,18.9-23.1,22.3c-5.4,1.7-5.2,1.9-5-4.7c0.3-10.4-2.5-18.4-8.9-25.6c-3.6-4.1-6.9-4.7-9.3-1.9c-2,2.4-1.6,4.3,1.6,8.2c8.3,10.2,9.2,22.7,2.3,33c-5,7.4-13.2,11.9-22.1,11.9c-4.8,0-8-0.7-12.3-2.8c-5.9-2.9-10.8-8.3-13.5-14.8l-1.2-3.1l-0.1-26.4l-0.1-26.4l1.8,1.2c3,1.9,8.3,3.5,11.8,3.5c2.8,0,3.2-0.1,4.4-1.3c1.5-1.6,1.8-3.8,0.6-6c-0.7-1.5-2.3-2.2-5.7-2.5c-4.9-0.5-9.2-3.5-11.7-8.2c-1.1-2-1.1-2-1.2-24.2l-0.1-22.2l2.8,0.2c4.6,0.4,7-1.3,7-5c0-2-2.6-4.6-4.6-4.6c-2.1,0-4-1.1-4.6-2.6c-0.4-1-0.5-8.6-0.4-28.7l0.1-27.4l1.1-2.7c1.5-3.7,5.8-8.2,9.5-10C148.3,19.8,151.4,19.4,156,20.2z"/></g></g></g>
</svg>