<?xml version="1.0" encoding="utf-8"?>
<!-- Svg Vector Icons : http://www.onlinewebfonts.com/icon -->
<!DOCTYPE svg PUBLIC "-//W3C//DTD SVG 1.1//EN" "http://www.w3.org/Graphics/SVG/1.1/DTD/svg11.dtd">
<svg version="1.1" xmlns="http://www.w3.org/2000/svg" xmlns:xlink="http://www.w3.org/1999/xlink" x="0px" y="0px" viewBox="0 0 256 256" enable-background="new 0 0 256 256" xml:space="preserve">
<metadata> Svg Vector Icons : http://www.onlinewebfonts.com/icon </metadata>
<g><g><g><path fill="#000000" d="M34.5,37.5c-1.8,0.8-4.5,3.6-5,5.2c-1.4,4.8-15.4,62.8-15.4,63.9c0,2.2,2.1,5.8,4,7c1,0.6,9.6,3,19.1,5.3c9.5,2.3,18.2,4.5,19.4,4.8l2.1,0.6v23.1v23.1H43.2H27.6L27.4,160c-0.2-9.6-0.3-10.7-1.3-12.1c-2.2-3-4-3.8-7.5-3.8c-3.5,0-5.3,0.9-7.5,3.8c-1.2,1.5-1.2,2.1-1.2,33.8c0,31.7,0,32.3,1.2,33.8c2.2,3,4,3.8,7.5,3.8c3.5,0,5.3-0.9,7.5-3.8c1.1-1.4,1.2-2.4,1.3-14.3l0.2-12.8l21.7-0.2c20.9-0.2,21.7-0.2,23.2-1.3c0.8-0.6,2.1-1.8,2.7-2.7c1.1-1.5,1.2-2.2,1.3-28.5l0.2-27l1.2,0.3c0.7,0.2,27.1,6.7,58.8,14.5s58.6,14.2,59.8,14.2c4.3,0,7.1-2.5,8.6-7.6c0.8-2.8,0.9-3,2.8-3c2.6,0,5.5-1.4,7.1-3.6c1.4-2,8.1-27.8,8.1-31.7c0-3.5-2.5-7-5.4-7.9c-1.1-0.3-1.2-0.6-0.7-2.6c0.4-1.6,0.8-2.1,1.5-1.9c5.1,1.6,17.2,4.2,18.9,4.2c5.7,0,10-6.9,7.8-12.3c-1.7-4.1-2.1-4.2-35.5-12.5c-17-4.2-62.4-15.4-100.9-24.9c-38.4-9.5-70.5-17.2-71.4-17.2C36.9,36.8,35.4,37.1,34.5,37.5z M123.1,75.8c42.4,10.4,77.1,19.1,77.2,19.1c0.2,0.2-10.3,42.7-10.6,43c-0.2,0.2-33.8-8.1-154.7-37.9c-1.2-0.3-1.1-0.8,4.2-21.7c3.6-14.6,5.6-21.5,6.1-21.5C45.7,56.8,80.7,65.3,123.1,75.8z"/><path fill="#000000" d="M52.9,68.5c-1.6,0.6-3,2.7-3,4.3c0,0.7,0.6,1.8,1.3,2.6c1.1,1.2,8.6,3.2,67,17.6c36.2,8.9,66.2,16.2,66.8,16.2c1.6,0,3.7-2.5,3.7-4.3c0-3.8,3.3-2.8-67.2-20.2c-35.8-8.9-65.7-16.2-66.3-16.3C54.5,68.2,53.5,68.3,52.9,68.5z"/></g></g></g>
</svg>