<?xml version="1.0" encoding="utf-8"?>
<!-- Svg Vector Icons : http://www.onlinewebfonts.com/icon -->
<!DOCTYPE svg PUBLIC "-//W3C//DTD SVG 1.1//EN" "http://www.w3.org/Graphics/SVG/1.1/DTD/svg11.dtd">
<svg version="1.1" xmlns="http://www.w3.org/2000/svg" xmlns:xlink="http://www.w3.org/1999/xlink" x="0px" y="0px" viewBox="0 0 256 256" enable-background="new 0 0 256 256" xml:space="preserve">
<metadata> Svg Vector Icons : http://www.onlinewebfonts.com/icon </metadata>
<g><g><g><path fill="#000000" d="M46.8,91.1L10,127.7l36.9,36.9l36.9,36.9V187v-14.5l-22.2-22.2L39.3,128l22.3-22.3l22.2-22.2L83.7,69l-0.1-14.5L46.8,91.1z"/><path fill="#000000" d="M172.3,69.1v14.4l22.2,22.2l22.3,22.3l-22.3,22.3l-22.2,22.2V187v14.5l36.9-36.9l36.9-36.9l-35.1-35.2C191.5,73.3,174.9,56.8,174,56l-1.8-1.4V69.1L172.3,69.1z"/><path fill="#000000" d="M80.3,113.6c-2.3,0.6-6.2,2.9-7.4,4.3c-2.6,3-3.6,5.9-3.6,9.8c0,4.4,1.2,7.7,4.1,10.6c5.6,5.6,15.1,5.6,20.7,0c5.3-5.4,5.6-14.4,0.6-20.3c-2-2.4-6.3-4.4-9.9-4.6C83.1,113.4,81.1,113.4,80.3,113.6z"/><path fill="#000000" d="M168.8,113.6c-2.3,0.6-6.2,2.9-7.4,4.3c-2.6,3-3.6,5.9-3.6,9.8c0,4.4,1.2,7.7,4.1,10.6c5.6,5.6,15.1,5.6,20.7,0c5.3-5.4,5.6-14.4,0.6-20.3c-2-2.4-6.3-4.4-9.9-4.6C171.6,113.4,169.5,113.4,168.8,113.6z"/></g></g></g>
</svg>