<?xml version="1.0" encoding="utf-8"?>
<!-- Svg Vector Icons : http://www.onlinewebfonts.com/icon -->
<!DOCTYPE svg PUBLIC "-//W3C//DTD SVG 1.1//EN" "http://www.w3.org/Graphics/SVG/1.1/DTD/svg11.dtd">
<svg version="1.1" xmlns="http://www.w3.org/2000/svg" xmlns:xlink="http://www.w3.org/1999/xlink" x="0px" y="0px" viewBox="0 0 256 256" enable-background="new 0 0 256 256" xml:space="preserve">
<metadata> Svg Vector Icons : http://www.onlinewebfonts.com/icon </metadata>
<g><g><path fill="#000000" d="M234.4,36.2c-6.2-4-14.8-7.6-25.7-10.7c-21.6-6-50.3-9.3-80.7-9.3c-30.4,0-59.1,3.3-80.7,9.3c-10.9,3-19.5,6.6-25.7,10.7C13.9,41.3,10,47.1,10,53.5v149c0,6.4,3.9,12.2,11.6,17.3c6.2,4,14.8,7.6,25.7,10.7c21.6,6,50.3,9.3,80.7,9.3c30.4,0,59.1-3.3,80.7-9.3c10.9-3,19.5-6.6,25.7-10.7c7.7-5,11.6-10.9,11.6-17.3v-149C246,47,242.1,41.2,234.4,36.2L234.4,36.2z M50.6,37.5c20.6-5.7,48.1-8.9,77.4-8.9c29.3,0,56.8,3.2,77.4,8.9c22.3,6.2,28.2,13.1,28.2,16c0,2.8-5.9,9.8-28.2,16c-20.6,5.7-48.1,8.9-77.4,8.9c-29.3,0-56.8-3.2-77.4-8.9c-22.3-6.2-28.2-13.1-28.2-16C22.4,50.7,28.3,43.7,50.6,37.5L50.6,37.5z M205.4,218.5c-20.6,5.7-48.1,8.9-77.4,8.9c-29.3,0-56.8-3.2-77.4-8.9c-22.3-6.2-28.2-13.1-28.2-16v-31.9c6.1,3.8,14.4,7.2,24.9,10.1c21.6,6,50.3,9.3,80.7,9.3c30.4,0,59.1-3.3,80.7-9.3c10.4-2.9,18.8-6.3,24.9-10.1v31.9C233.6,205.3,227.7,212.3,205.4,218.5L205.4,218.5z M205.4,168.8c-20.6,5.7-48.1,8.9-77.4,8.9c-29.3,0-56.8-3.2-77.4-8.9c-22.3-6.2-28.2-13.1-28.2-16V121c6.1,3.8,14.4,7.2,24.9,10.1c21.6,6,50.3,9.3,80.7,9.3c30.4,0,59.1-3.3,80.7-9.3c10.4-2.9,18.8-6.3,24.9-10.1v31.9C233.6,155.7,227.7,162.6,205.4,168.8L205.4,168.8z M205.4,119.2c-20.6,5.7-48.1,8.9-77.4,8.9c-29.3,0-56.8-3.2-77.4-8.9c-22.3-6.2-28.2-13.1-28.2-16V71.3c6.1,3.8,14.4,7.2,24.9,10.1c21.6,6,50.3,9.3,80.7,9.3c30.4,0,59.1-3.3,80.7-9.3c10.4-2.9,18.8-6.3,24.9-10.1v31.9C233.6,106,227.7,112.9,205.4,119.2L205.4,119.2z"/></g></g>
</svg>