<?xml version="1.0" encoding="utf-8"?>
<!-- Svg Vector Icons : http://www.onlinewebfonts.com/icon -->
<!DOCTYPE svg PUBLIC "-//W3C//DTD SVG 1.1//EN" "http://www.w3.org/Graphics/SVG/1.1/DTD/svg11.dtd">
<svg version="1.1" xmlns="http://www.w3.org/2000/svg" xmlns:xlink="http://www.w3.org/1999/xlink" x="0px" y="0px" viewBox="0 0 256 256" enable-background="new 0 0 256 256" xml:space="preserve">
<metadata> Svg Vector Icons : http://www.onlinewebfonts.com/icon </metadata>
<g><g><path fill="#000000" d="M128,151.6c13,0,23.6-10.6,23.6-23.6c0-13-10.6-23.6-23.6-23.6c-13,0-23.6,10.5-23.6,23.6C104.4,141,114.9,151.6,128,151.6z M128,113.8c7.8,0,14.2,6.4,14.2,14.2c0,7.8-6.4,14.2-14.2,14.2c-7.8,0-14.2-6.4-14.2-14.2C113.8,120.2,120.2,113.8,128,113.8z"/><path fill="#000000" d="M245.1,142.6c0.6-4.8,0.9-9.7,0.9-14.6c0-65.2-52.8-118-118-118l0,0l0,0C83.2,10,44.3,34.9,24.3,71.6c0,0,0,0.1-0.1,0.1c-0.4,0.7-0.7,1.4-1.1,2.1c-1.4,2.7-2.7,5.4-3.9,8.2c-0.2,0.4-0.3,0.8-0.5,1.3C13.1,97.1,10,112.2,10,128c0,65.2,52.8,118,118,118c58.6,0,107.3-42.8,116.4-98.8C244.7,145.7,244.9,144.2,245.1,142.6L245.1,142.6z M236.3,134.4c0,0.7-0.1,1.3-0.1,1.9c-0.1,1.5-0.2,3-0.4,4.5c-0.1,0.7-0.2,1.4-0.3,2.1c-0.2,1.5-0.5,3-0.7,4.6c-0.1,0.6-0.2,1.1-0.3,1.7c-0.4,2.1-0.9,4.1-1.4,6.1c0,0,0,0,0,0c-0.5,2-1.1,4-1.7,5.9c-0.1,0.5-0.3,1-0.5,1.5c-0.5,1.5-1,3-1.6,4.5c-0.2,0.5-0.4,1-0.6,1.5c-0.7,1.6-1.3,3.1-2,4.7c-0.1,0.3-0.3,0.7-0.4,1c-0.9,1.9-1.9,3.8-2.9,5.7l-56.5-34.1c2.5-5.4,3.9-11.4,3.9-17.8c0-23.5-19.1-42.6-42.6-42.6c0,0,0,0,0,0c0,0,0,0,0,0c-0.2,0-0.3,0-0.5,0c-1.4,0-2.8,0.1-4.2,0.2c-0.1,0-0.3,0-0.4,0.1c-8,1-15.4,4.2-21.4,9L54.7,48C64.1,39.4,75,32.4,87,27.5l0,0c6.3-2.6,12.9-4.6,19.8-6c0.1,0,0.2,0,0.3,0c1.6-0.3,3.2-0.6,4.8-0.8c0.4,0,0.7-0.1,1.1-0.1c1.4-0.2,2.8-0.4,4.2-0.5c0.7-0.1,1.5-0.1,2.2-0.2c1-0.1,2.1-0.2,3.1-0.2c1.7-0.1,3.5-0.1,5.3-0.1c0.1,0,0.1,0,0.2,0c54.3,0,99.3,40,107.3,92c0.8,5.4,1.3,10.9,1.3,16.5C236.5,130.1,236.5,132.3,236.3,134.4L236.3,134.4z M210.9,198c-1.2,1.4-2.4,2.7-3.6,4c-0.2,0.2-0.5,0.5-0.7,0.7c-1.1,1.2-2.3,2.3-3.4,3.5c-0.3,0.2-0.5,0.5-0.8,0.7c-1.2,1.1-2.4,2.2-3.7,3.3c-0.2,0.2-0.5,0.4-0.7,0.6c-1.4,1.2-2.9,2.4-4.4,3.5c0,0-0.1,0.1-0.1,0.1c-3.2,2.4-6.5,4.7-10,6.8l-31.3-58.1c3.7-2.5,6.9-5.6,9.6-9.2l56.5,34.1c-2.2,3.3-4.6,6.6-7.2,9.6C211.1,197.8,211,197.9,210.9,198L210.9,198z M163.3,230.6c-1.4,0.5-2.8,0.9-4.2,1.4c-0.5,0.2-1.1,0.3-1.6,0.5c-1.3,0.4-2.6,0.7-3.9,1c-0.6,0.1-1.3,0.3-1.9,0.4c-1.3,0.3-2.6,0.5-3.9,0.8c-0.7,0.1-1.3,0.2-1.9,0.4c-1.3,0.2-2.7,0.4-4,0.6c-0.6,0.1-1.2,0.2-1.9,0.2c-1.5,0.2-3,0.3-4.5,0.4c-0.5,0-0.9,0.1-1.4,0.1c-2,0.1-4,0.2-6.1,0.2c-58,0-105.5-45.7-108.4-103c-0.1-1.9-0.1-3.7-0.1-5.6c0-1.8,0-3.7,0.1-5.5c0.1-1.4,0.2-2.8,0.3-4.1c0-0.4,0-0.8,0.1-1.2c1.1-10.6,3.7-20.8,7.6-30.4c0,0,0-0.1,0-0.1C32.5,74.8,39.5,64,48,54.7l46.8,46.8c-5.2,6.5-8.5,14.6-9.2,23.4c-0.1,1-0.2,2-0.2,3.1c0,0,0,0,0,0c0,0,0,0,0,0c0,23.5,19,42.6,42.6,42.6c5.6,0,11-1.1,15.9-3.1l31.3,58.1c-3.5,1.7-7.1,3.2-10.8,4.5C164.1,230.3,163.7,230.5,163.3,230.6L163.3,230.6z M161,128c0,18.2-14.8,33-33,33c-18.2,0-33-14.8-33-33C95,109.8,109.8,95,128,95C146.2,95,161,109.8,161,128z"/></g></g>
</svg>