<?xml version="1.0" encoding="utf-8"?>
<!-- Svg Vector Icons : http://www.onlinewebfonts.com/icon -->
<!DOCTYPE svg PUBLIC "-//W3C//DTD SVG 1.1//EN" "http://www.w3.org/Graphics/SVG/1.1/DTD/svg11.dtd">
<svg version="1.1" xmlns="http://www.w3.org/2000/svg" xmlns:xlink="http://www.w3.org/1999/xlink" x="0px" y="0px" viewBox="0 0 256 256" enable-background="new 0 0 256 256" xml:space="preserve">
<metadata> Svg Vector Icons : http://www.onlinewebfonts.com/icon </metadata>
<g><g><g><path fill="#000000" d="M71.3,11.2c-7.6,1.6-18.3,5.5-18.3,6.7c0,0.2,0.9,3.5,2.1,7.2c1.1,3.8,2,6.9,1.9,6.9c0,0-1.4,0.9-3,1.8l-2.9,1.8l-5.4-5.1c-3-2.8-5.5-5.1-5.6-5.1C40,25.4,38,27,35.7,29c-4,3.5-8.6,8.5-11.7,13l-1.5,2.1l5.4,5.1l5.4,5.1l-1.8,3c-1,1.7-1.8,3.1-1.8,3.1c0,0-3.1-0.6-6.7-1.5s-6.9-1.5-7.2-1.4c-1.4,0.6-5.1,14.5-5.5,21.1L10,82.5l6.8,1.6l6.9,1.6l0.1,3.6l0.1,3.6L20.2,94c-2.1,0.6-5.2,1.5-6.8,2l-3,0.8l0.3,2.3c0.7,5.7,5,19.1,6.9,21.8c0.5,0.6,1.2,0.5,6.8-1.2c3.5-1.1,6.5-1.9,6.8-1.9c0.5,0,3.7,4.8,3.7,5.6c0,0.3-2.1,2.6-4.6,5.3c-4.1,4.2-4.6,4.9-4.2,5.7c0.9,1.7,8.9,9.8,12.6,12.7c6.1,4.9,5.1,4.9,10.8-1l4.9-5.1l3,1.5c1.6,0.8,2.9,1.7,2.8,1.9c-0.8,2.2-3.1,13.4-2.8,13.6c0.7,0.7,8.6,3.1,13.4,4.1c2.5,0.6,6.1,1.1,8,1.1l3.4,0.1l1.7-6.9l1.7-6.9h3.2H92l0.8,2.8c3.4,11.4,3.2,10.9,4.3,10.9c3.6,0,15-3.3,20.8-5.9l3-1.4l-2-6.8c-1.1-3.7-2-7-2-7.3c0-0.3,1.1-1.2,2.4-2.1l2.3-1.5l5.5,5.2c3.1,2.8,5.7,5,6,4.9c1.4-0.5,9-7.7,12.3-11.7c5.9-7.2,6-6-0.5-12.1l-5.5-5.2l1.1-2.4c0.6-1.3,1.2-2.4,1.5-2.6c0.2-0.1,3.4,0.5,7.1,1.4c3.7,0.9,7.1,1.6,7.6,1.6c1.5,0,4.9-10.8,6.2-19.8c0.4-2.7,0.6-4.9,0.6-4.9c0,0-3.5-0.9-7.7-1.9l-7.6-1.8v-3V83l5.1-1.6c2.8-0.8,6.2-1.8,7.6-2.2l2.4-0.7l-0.3-2.5c-0.7-5.7-5.2-20.5-6.6-22c-0.2-0.2-3.7,0.6-7.9,1.9l-7.5,2.3l-1.1-1.7c-2.3-3.7-2.6-2.9,3.5-9.3l5.5-5.9l-1.8-2.4c-4.5-5.7-14.8-15.3-16.5-15.3c-0.3,0-2.9,2.5-5.8,5.6l-5.3,5.6l-2.7-1.6l-2.7-1.6l1.8-7.5c1.1-4.7,1.6-7.8,1.4-8c-1.6-1.6-18.2-6-22.7-6c-1.7,0-1.9,0.1-2.2,1.2c-0.2,0.7-1,4-1.8,7.3l-1.4,6h-3.4H82l-2.1-7.2c-1.4-4.7-2.4-7.2-2.8-7.3C76.8,10.2,74.2,10.6,71.3,11.2z M95.6,45.7c16.2,3.7,28.7,16.3,32.2,32.6c1.2,5.2,0.9,13.4-0.5,18.8c-3.1,12.1-11.1,21.9-22.3,27.4c-23.5,11.6-51.6-1.2-59-26.8c-0.9-3.2-1.1-4.7-1-11.1c0-6.7,0.1-7.8,1.2-11.5C51.1,59.7,63,48.7,78.5,45.5C83.1,44.6,91,44.7,95.6,45.7z"/><path fill="#000000" d="M197.5,53.1c-3.7,1-6.1,1.9-8.8,3.5l-1.9,1.1l1.4,4.2l1.4,4.2l-1,1l-1,1l-4-1.9c-3.1-1.6-4.1-1.8-4.6-1.4c-2,1.6-7.1,12.1-7.1,14.4c0,0.3,1.8,1.5,4,2.5c3.8,1.9,3.9,2,3.8,3.4c-0.1,1.4-0.3,1.5-3.9,2.7c-2.1,0.7-4,1.4-4.2,1.5c-0.5,0.3,0.1,4.8,1.2,7.9c0.7,2.4,3.1,7.6,3.8,8.2c0.2,0.2,2.3-0.3,4.6-1.1l4.2-1.4l0.9,1.1c0.9,1.1,0.9,1.1-1.2,5.1l-2,4l2.4,1.8c2.7,2.1,7.2,4.3,10.9,5.3l2.4,0.7l1.9-4c1.8-3.7,2-4,3.3-4c1.3,0,1.4,0.2,2.8,4.2l1.5,4.2l2.2-0.1c1.2,0,3.4-0.4,4.8-0.8c3.4-1,9.3-3.8,9.3-4.5c0-0.3-0.6-2.4-1.3-4.6l-1.4-4l1.2-0.8c1.1-0.7,1.3-0.7,5,1.2c2.1,1.1,4,1.9,4.1,1.9c0.6,0,4.8-7.1,5.9-9.8c2.3-5.7,2.4-5.4-2.2-7.7c-3.7-1.8-3.9-2-3.9-3.5c0-1.5,0-1.5,4.2-2.9c4.1-1.3,4.2-1.4,4.2-2.7c0-2.5-1.4-7.3-3.2-11.2c-1-2.1-2-3.8-2.2-3.8c-0.2,0-2.3,0.6-4.5,1.4c-2.3,0.7-4.1,1.3-4.1,1.2c0,0-0.4-0.6-0.9-1.1c-0.8-1-0.8-1.1,1.2-5l2-4l-1.6-1.3c-2.1-1.8-8.3-4.9-11.5-5.7l-2.4-0.7l-2.1,4.1c-1.8,3.6-2.3,4.2-3.2,4.2c-1.3,0-1.9-1-3.4-5.7C203.1,51.7,203,51.7,197.5,53.1z M208.9,69.8c5.5,1.1,10.4,4.9,12.8,10.1c1.1,2.3,1.2,3.2,1.2,7c0,4.1-0.1,4.7-1.5,7.4c-1.8,3.7-4.7,6.5-8.8,8.4c-2.7,1.2-3.6,1.4-6.8,1.4c-4.9,0-8.2-1.3-11.7-4.6c-1.8-1.7-3.1-3.4-4-5.4c-1.2-2.5-1.3-3.4-1.3-7.3c0-3.9,0.1-4.7,1.3-7.3c2.3-4.9,7.2-8.8,12.4-9.8C205.3,69.2,206.1,69.2,208.9,69.8z"/><path fill="#000000" d="M177.5,130.6c-4.6,0.8-14.9,4.3-14.9,5c0,0.1,0.5,2.1,1.2,4.5c0.6,2.4,1.2,4.5,1.2,4.8c0,0.3-1,1-2.1,1.6l-2.1,1.1l-3.4-3.4l-3.4-3.4l-1.2,0.8c-2.3,1.5-8.6,7.8-10.9,10.9l-2.3,3.1l3.4,3.4l3.3,3.3l-1.2,2.1c-0.6,1.2-1.4,2.1-1.8,2.1c-0.4,0-2.4-0.5-4.5-1c-2.1-0.6-4-0.9-4.1-0.7c-1.1,1.1-3.9,11.7-4.6,17.3l-0.3,2.4l2.5,0.7c1.3,0.4,3.3,1,4.4,1.2l1.9,0.5v2.5v2.4l-4.2,1.1c-4,1-4.2,1.1-4.2,2.3c0,3.1,2.4,11.6,4.6,16.6l1,2.1l4-1.1c2.3-0.6,4.2-1.1,4.3-1.1c0.2,0,0.8,0.8,1.5,1.8l1.2,1.8l-3,3c-1.6,1.6-3,3.2-3,3.6c0,1.5,6.3,8.1,11.7,12.4l2.7,2.1l3.3-3.3l3.3-3.2l1.4,0.9c0.8,0.5,1.6,0.9,1.8,1c0.3,0.1-1,6.2-1.8,8.3c-0.3,0.8,0.8,1.3,6.2,3.2c4,1.4,10.3,2.7,12.5,2.7c1.2,0,1.3-0.2,2.4-4.4l1.1-4.4h2.2h2.1l1.1,4.2c0.6,2.5,1.3,4.3,1.8,4.5c1.8,0.7,16-2.7,18.9-4.5c0.5-0.3,0.4-1.2-0.6-4.9c-0.6-2.4-1.2-4.6-1.2-4.8c0-0.2,0.7-0.7,1.7-1.2l1.7-0.8l3.3,3.2c1.8,1.8,3.6,3.3,3.8,3.3c1.4,0,9.8-7.6,13.5-12.3l1.5-1.8l-3.7-3.7l-3.7-3.7l1.1-1.7l1.1-1.7l4.1,1.1c2.2,0.6,4.5,1.2,5,1.4c0.9,0.2,1.2-0.2,2.5-3.3c1.5-3.7,3.3-10.3,3.9-14.1l0.3-2.2l-2.5-0.7c-1.4-0.4-3.7-1-5.2-1.4l-2.5-0.7l0.1-2.1l0.1-2.2l5-1.3l5-1.4l-0.3-3.3c-0.3-3.7-2.1-10.9-3.6-14.5c-0.8-2-1.2-2.4-1.9-2.1c-1.2,0.4-9.2,2.5-9.4,2.5c-0.1,0-0.6-0.9-1.2-1.9l-1-1.9l3.8-3.8l3.8-3.8l-1.8-2.4c-2.9-3.9-6.4-7.5-9.7-10.1l-3-2.4l-3.8,3.8l-3.8,3.8l-1.9-1.2c-1-0.7-1.9-1.4-1.9-1.6c0-0.2,0.6-2.5,1.2-5.1c1-4.1,1.1-4.9,0.6-5.2c-2.2-1.4-11.9-4.2-16.6-4.8l-2.5-0.3l-1.4,5l-1.3,5h-2.5h-2.5l-0.8-3c-0.4-1.7-1-3.9-1.3-5C182.4,129.6,182.6,129.7,177.5,130.6z M196,149.9c3.8,0.8,8.5,2.7,12.2,4.8c4,2.3,11.1,9.7,13.5,14c12.5,22.4,0.6,50.4-24.1,56.9c-5,1.3-12.9,1.4-18,0.3c-4.1-1-10.1-3.6-13.5-5.9c-7.3-5-12.9-12.9-15.4-21.8c-1.5-5.4-1.6-15,0-20.3c4-13.9,14.2-23.9,28.4-27.6C183.1,149.1,191.5,149,196,149.9z"/><path fill="#000000" d="M182.7,157.6c-6.1,1-12.7,4.6-17.2,9.4c-10.3,11-11,27.6-1.7,39.9c8.8,11.6,25.4,15.1,38.8,8.1c4.5-2.4,10.1-8,12.5-12.5c4.6-8.8,4.8-19.5,0.6-28.1C209.5,162.3,196.1,155.4,182.7,157.6z"/></g></g></g>
</svg>