<?xml version="1.0" encoding="utf-8"?>
<!-- Svg Vector Icons : http://www.onlinewebfonts.com/icon -->
<!DOCTYPE svg PUBLIC "-//W3C//DTD SVG 1.1//EN" "http://www.w3.org/Graphics/SVG/1.1/DTD/svg11.dtd">
<svg version="1.1" xmlns="http://www.w3.org/2000/svg" xmlns:xlink="http://www.w3.org/1999/xlink" x="0px" y="0px" viewBox="0 0 256 256" enable-background="new 0 0 256 256" xml:space="preserve">
<metadata> Svg Vector Icons : http://www.onlinewebfonts.com/icon </metadata>
<g><g><g><path fill="#000000" d="M10,128v118h118h118V128V10H128H10V128z M239,127.8V239H127.8H16.5V127.8V16.5h111.3H239L239,127.8L239,127.8z"/><path fill="#000000" d="M80,59.1v12.1H65.2H50.3v68.6v68.6h12.5h12.5v-16.7v-16.7h3.7h3.7v16.7v16.7h12.5h12.5v-16.7v-16.7h3.7h3.7v16.7v16.7h12.5h12.5v-16.7v-16.7h3.7h3.7v16.7v16.7h12.5h12.5v-16.7v-16.7h3.7h3.7v16.7v16.7h12.5h12.5v-68.6V71.2h-14.8h-14.8V59.1V47.1h-47.8H80V59.1z M168.1,66.6v12.1h14.8h14.8v61.2V201h-5.1h-5.1v-16.7v-16.7h-11.1h-11.1v16.7V201h-5.1h-5.1v-16.7v-16.7H144h-11.1v16.7V201h-5.1h-5.1v-16.7v-16.7h-11.1h-11.1v16.7V201h-5.1h-5.1v-16.7v-16.7H79.1H68v16.7V201h-5.1h-5.1v-61.2V78.6h14.8h14.8V66.6V54.5h40.3h40.3L168.1,66.6L168.1,66.6z"/></g></g></g>
</svg>