<?xml version="1.0" encoding="utf-8"?>
<!-- Svg Vector Icons : http://www.onlinewebfonts.com/icon -->
<!DOCTYPE svg PUBLIC "-//W3C//DTD SVG 1.1//EN" "http://www.w3.org/Graphics/SVG/1.1/DTD/svg11.dtd">
<svg version="1.1" xmlns="http://www.w3.org/2000/svg" xmlns:xlink="http://www.w3.org/1999/xlink" x="0px" y="0px" viewBox="0 0 256 256" enable-background="new 0 0 256 256" xml:space="preserve">
<metadata> Svg Vector Icons : http://www.onlinewebfonts.com/icon </metadata>
<g><g><g><path fill="#000000" d="M123,10.7c-8.4,2.3-15.3,9.8-16.8,18.4c-1.1,6.4,1.5,13.5,6.8,18.6c2,1.9,3,3.2,2.8,3.7c-0.8,2.4-9.5,22.4-9.8,22.5c-0.2,0.1-6.2-2.3-13.3-5.3l-12.9-5.4l0.1-3.5c0.6-11.4-7.7-21.7-19-23.6c-13.5-2.3-27.1,11.3-24.8,24.8c1.9,11.3,12.2,19.6,23.6,19l3.5-0.1l5.4,12.9c3,7.1,5.4,13.1,5.3,13.3c-0.1,0.3-20.1,9-22.5,9.8c-0.5,0.2-1.8-0.7-3.7-2.8c-5.1-5.4-12.2-7.9-18.7-6.8c-11.8,2-20.6,13.8-18.7,24.9c2,11.8,13.8,20.6,24.9,18.7c4.7-0.8,9.1-3.2,12.6-6.8l2.9-3.1l1.9,0.7c5.7,2.2,21.3,9,21.4,9.4c0.1,0.2-2.3,6.2-5.3,13.3l-5.4,12.9l-3.5-0.1c-11.4-0.6-21.7,7.7-23.6,19c-2.3,13.5,11.3,27.1,24.8,24.8c11.3-1.9,19.6-12.2,19-23.6l-0.1-3.5l12.7-5.4c7-3,13-5.3,13.3-5.3c0.5,0.1,8.9,19,10,22.5c0.2,0.5-0.7,1.8-2.8,3.7c-3.6,3.5-6,7.9-6.8,12.5c-1.9,11.1,7,22.9,18.7,24.9c11.1,1.9,22.9-7,24.9-18.8c1.1-6.4-1.5-13.5-6.8-18.6c-2-1.9-3-3.2-2.8-3.7c1.1-3.6,9.5-22.4,10-22.5c0.3,0,6.3,2.4,13.3,5.3l12.7,5.4l-0.1,3.5c-0.6,11.4,7.7,21.7,19,23.6c13.5,2.3,27.1-11.3,24.8-24.8c-1.9-11.3-12.2-19.6-23.6-19l-3.5,0.1l-5.4-12.7c-3-7-5.3-13-5.3-13.3c0.1-0.5,19-8.9,22.5-10c0.5-0.2,1.8,0.7,3.7,2.8c5.1,5.4,12.2,7.9,18.7,6.8c11.7-2,20.6-13.8,18.7-24.8c-2-11.9-13.8-20.7-24.9-18.8c-4.7,0.8-9.1,3.2-12.5,6.8c-1.9,2-3.2,3-3.7,2.8c-3.6-1.1-22.4-9.5-22.5-10c0-0.3,2.4-6.3,5.3-13.3l5.4-12.7l3.5,0.1c11.4,0.6,21.7-7.7,23.6-19c2.3-13.5-11.3-27.1-24.8-24.8c-11.3,1.9-19.6,12.2-19,23.6l0.1,3.5l-12.9,5.4c-7.1,3-13.1,5.4-13.3,5.3c-0.4-0.1-7.2-15.7-9.4-21.4l-0.7-1.9l3.1-2.9c5.4-5.2,7.9-12.2,6.8-18.7C147.6,16.4,134.7,7.5,123,10.7z M134.7,18.7c2.9,1.4,5.3,3.8,6.7,6.7c1,2,1.2,3,1.1,6.7c0,5-0.9,7.5-3.8,10.5l-1.6,1.7l-3-7.1c-1.6-3.9-3.4-7.5-3.9-8c-0.5-0.4-1.5-0.8-2.2-0.8c-0.7,0-1.7,0.4-2.2,0.8c-0.5,0.5-2.3,4.1-3.9,8l-3,7.1l-1.6-1.7c-2.4-2.5-3.7-5.6-4-9.5c-0.5-7.1,3.1-12.7,9.6-15.1C125.9,16.9,131.6,17.3,134.7,18.7z M129.3,44.5l1,2.3H128h-2.3l1-2.3c0.5-1.3,1.1-2.3,1.3-2.3C128.2,42.2,128.8,43.2,129.3,44.5z M62.8,43.9c6.1,2.1,10.1,7.8,9.7,13.9l-0.1,2.3l-6.9-3c-3.8-1.6-7.4-2.9-7.9-2.9c-1.4,0-3.4,1.9-3.4,3.4c0,0.6,1.3,4.2,2.9,7.9l3,6.9l-2.3,0.1c-4.4,0.3-9.6-2.3-11.9-5.8c-3.6-5.4-3.6-12.4,0-17.7C49,44.1,56.8,41.8,62.8,43.9z M204.8,44.5c8,3.8,10.6,14.4,5.4,22.2c-2.4,3.6-7.6,6.1-12,5.8l-2.3-0.1l2.9-6.9c1.6-3.8,3-7.4,3-8c0-1.4-1.9-3.3-3.3-3.3c-0.6,0-4.2,1.3-8,3l-6.9,2.9l-0.1-2.3c-0.4-6,3.6-11.7,9.6-13.9C196,42.8,201.7,43.1,204.8,44.5z M138,65.3c2.6,6.2,4.7,11.4,4.6,11.7c-0.1,0.5-13.6,6.3-14.6,6.3c-0.7,0-13.8-5.4-14.5-6c-0.4-0.3,3.7-10.7,8.3-20.9l1-2.3h5.3l5.2,0L138,65.3z M68.5,66.3l1.6,0.7l-1.5,1.5L67,70.1l-0.7-1.6c-1.6-3.7-1.6-3.6-0.5-3.2C66.4,65.5,67.6,66,68.5,66.3z M190.8,65.8c-0.2,0.6-0.7,1.8-1.1,2.6l-0.7,1.6l-1.5-1.5l-1.5-1.5l2.5-1.1c1.4-0.6,2.5-1.1,2.6-1.1C191.1,64.8,191,65.3,190.8,65.8z M89.7,75.2c7,3,12.9,5.5,13.1,5.8c0.4,0.3-4.6,12.8-6,15c-0.7,1.2-15.3,7.4-15.9,6.8c-0.4-0.4-11.1-25.7-11.1-26.1c0-0.4,6.2-6.7,6.6-6.8C76.7,69.9,82.6,72.3,89.7,75.2z M182.8,73.2c1.8,1.8,3.3,3.4,3.3,3.5c0,0.4-10.7,25.7-11.1,26.1c-0.3,0.4-12.8-4.6-15-6c-0.6-0.4-2.2-3.5-4.1-8.1c-2.6-6.2-3-7.6-2.5-7.9c0.7-0.5,25.4-10.9,25.8-11C179.4,69.9,181,71.4,182.8,73.2z M112.4,84.8c0.9,0.4,2.6,1.1,3.9,1.7l2.3,1l-5.3,2.3c-7.6,3.3-7.1,3.3-5.8,0.3c0.6-1.4,1.4-3.3,1.8-4.2C110.1,84,110.2,83.9,112.4,84.8z M147.7,88c0.8,2,1.5,3.8,1.4,4c-0.1,0.2-2.7-0.7-5.9-2.1l-5.8-2.4l2.8-1.2c1.5-0.6,3.2-1.4,3.7-1.7C145.6,83.9,146.1,84.4,147.7,88z M140.4,96.7c6.7,2.9,12.5,5.5,13,5.9c0.4,0.4,3.1,6.3,6,13.1l5.2,12.3l-5.2,12.4c-2.9,6.8-5.5,12.7-6,13.1c-0.4,0.4-6.3,3.1-13.1,5.9l-12.4,5.2l-12.3-5.2c-6.8-2.9-12.6-5.5-13.1-5.9c-0.4-0.4-3.1-6.3-6-13.1L91.5,128l5.4-12.9l5.4-12.8l12.5-5.4c6.9-2.9,12.7-5.4,13-5.4C128,91.6,133.7,93.9,140.4,96.7z M90,112.6l-2.5,5.9l-1-2.3c-2-4.6-2.4-5.8-2.1-6.1c0.4-0.4,7.8-3.7,8-3.5C92.5,106.6,91.4,109.4,90,112.6z M167.7,108.2c1.9,0.8,3.6,1.6,3.8,1.8c0.4,0.3-2.1,7-2.9,7.9c-0.2,0.2-1.1-1.5-2-3.7c-0.9-2.3-2-4.8-2.4-5.8c-0.4-0.9-0.6-1.7-0.3-1.7C164.2,106.8,165.9,107.4,167.7,108.2z M38.7,114.6c1.2,0.6,3,1.8,3.9,2.7l1.7,1.6l-7.1,3c-3.9,1.6-7.5,3.4-7.9,3.9c-0.5,0.5-0.8,1.5-0.8,2.2c0,0.7,0.4,1.7,0.8,2.2c0.4,0.5,4,2.3,7.9,3.9l7.1,3l-1.7,1.6c-3,2.9-5.5,3.8-10.5,3.8c-3.7,0-4.7-0.1-6.7-1.1c-4.8-2.4-7.6-6.6-8-12.3c-0.5-7.1,3.1-12.7,9.6-15.1C30,112.9,35.7,113.2,38.7,114.6z M80.3,120.4c1.6,3.8,3,7.2,3,7.6c0,1-5.8,14.5-6.3,14.6c-0.2,0.1-5.5-2-11.7-4.6L54,133.2V128v-5.3l11-4.7c6.1-2.6,11.3-4.7,11.7-4.6C77.1,113.4,78.7,116.5,80.3,120.4z M190.9,118l11,4.7v5.3v5.3l-11.3,4.8c-6.2,2.6-11.4,4.7-11.7,4.6c-0.5-0.1-6.3-13.6-6.3-14.6c0-0.4,1.1-3.2,2.4-6.2c1.3-3,2.6-6.2,3-7.1c0.4-0.8,0.9-1.5,1.2-1.4C179.6,113.3,184.9,115.4,190.9,118z M230.6,114.6c2.9,1.4,5.3,3.8,6.7,6.7c1,2,1.2,3,1.1,6.7c0,5-1,7.7-3.9,10.6c-2.9,2.9-5.6,3.9-10.6,3.9c-5,0-7.4-0.8-10.5-3.8l-1.7-1.6l7.3-3.1c4-1.7,7.6-3.5,7.9-4c0.9-1.2,0.8-3.2-0.1-4.3c-0.5-0.5-4-2.3-7.8-3.9c-6.1-2.5-6.9-3-6.5-3.7c0.6-1.2,4-3.4,6.4-4.2C221.8,112.9,227.6,113.2,230.6,114.6z M46.8,127.9v2.3l-2.3-1c-1.2-0.5-2.3-1.1-2.3-1.3c0-0.3,3.1-1.8,4.5-2.3C46.8,125.7,46.8,126.7,46.8,127.9z M213.8,128c0,0.2-1,0.8-2.3,1.3l-2.3,1V128v-2.3l2.3,1C212.8,127.2,213.8,127.8,213.8,128z M92.1,149.1c-0.4,0.1-7-2.6-7.6-3.1c-0.4-0.4,0-1.4,2-6.2l1-2.3l2.5,5.8C91.3,146.4,92.3,149,92.1,149.1z M170.4,141.8c0.8,1.9,1.4,3.7,1.3,4c-0.2,0.5-7.6,3.7-7.9,3.4c-0.1-0.1,0.9-2.7,2.2-5.8c1.3-3.1,2.5-5.5,2.7-5.3C168.8,138.2,169.6,139.9,170.4,141.8z M88.8,155.9c3.9,1.7,7.3,3.2,7.6,3.5c0.9,0.7,6.8,15.3,6.4,15.6c-0.4,0.4-25.7,11.1-26.1,11.1c-0.3,0-6.8-6.6-6.8-6.8c0-0.1,2.2-5.3,4.8-11.6c2.6-6.2,5.1-12.1,5.5-13.1c0.4-0.9,0.9-1.7,1.2-1.7C81.5,152.9,84.9,154.2,88.8,155.9z M180.4,165.6c2.9,6.8,5.4,12.8,5.5,13.1c0.1,0.5-0.9,1.9-3.1,4.1c-1.8,1.8-3.4,3.3-3.5,3.3c-0.4,0-25.8-10.8-26.1-11.1c-0.4-0.4,5.5-14.9,6.4-15.6c0.9-0.7,14.3-6.4,14.9-6.3C174.8,153.1,177.5,158.7,180.4,165.6z M114.3,166.6c2.2,0.9,3.9,1.8,3.7,2c-0.9,0.8-7.6,3.3-7.9,2.9c-0.5-0.5-3.3-7-3.3-7.6c0-0.2,0.8-0.1,1.8,0.3C109.5,164.6,112,165.7,114.3,166.6z M147.8,167.7c-0.8,1.9-1.6,3.6-1.8,3.8c-0.4,0.4-1.4,0-6.2-2l-2.3-1l5.8-2.5c3.2-1.4,5.8-2.3,5.9-2.1C149.2,164.1,148.6,165.8,147.8,167.7z M135.6,175.7c3.8,1.6,7,3.1,7,3.4c0.1,0.2-2,5.5-4.6,11.7l-4.8,11.3H128h-5.3l-4.7-11c-2.6-6.1-4.7-11.3-4.6-11.7c0.1-0.7,12.8-6.4,14.4-6.5C128.3,172.7,131.8,174.1,135.6,175.7z M58.1,188.3c-1.2,2.8-2.5,5.9-3,7c-0.5,1.1-0.9,2.5-0.9,3.1c0,1.4,1.9,3.4,3.3,3.4c0.6,0,4.2-1.3,8-3l6.9-2.9l0.1,2.3c0.3,4.3-2.2,9.5-5.7,11.9c-3,2.1-6.2,2.9-10.1,2.7c-7.9-0.6-13.1-5.7-13.6-13.6c-0.6-8.9,5.5-15.7,14.3-15.8h2.6L58.1,188.3z M204.8,184.8c2.9,1.3,5.3,3.7,6.7,6.6c0.9,1.9,1.1,3,1.1,6.7c0,3.7-0.1,4.7-1.1,6.7c-1.4,2.9-3.8,5.3-6.7,6.7c-2,1-3,1.2-6.7,1.1c-3.7,0-4.8-0.2-6.7-1.1c-4.8-2.4-7.6-6.6-8-12.3l-0.2-3.4l5,2.1c2.8,1.2,6,2.5,7.1,3c2.7,1.2,4,1.1,5.4-0.3c1.4-1.3,1.4-2.7,0.3-5.3c-0.5-1.1-1.8-4.3-3-7.1l-2.1-5l3.4,0.2C201.3,183.6,203.3,184,204.8,184.8z M69.1,188c0.8,1.1,0.7,1.1-3.3,2.7l-1,0.4l0.7-1.8c0.4-0.9,0.8-2.1,1-2.5C66.8,186,68.1,186.5,69.1,188z M190.7,190.1c0.5,1.1,0.5,1.1-3.2-0.5l-1.6-0.7l1.5-1.5l1.5-1.5l0.7,1.6C190,188.4,190.5,189.6,190.7,190.1z M129.3,211.5c-0.5,1.2-1.1,2.3-1.3,2.3c-0.2,0-0.8-1.1-1.3-2.3l-1-2.3h2.3h2.3L129.3,211.5z M125.8,226.8c1.1,1,3.1,1.1,4.3,0.2c0.5-0.3,2.3-3.9,4-7.9l3.1-7.3l1.6,1.7c3,3.1,3.8,5.5,3.8,10.5c0,5-1,7.7-3.9,10.6c-2.9,2.9-5.6,3.9-10.6,3.9c-3.7,0-4.7-0.1-6.7-1.1c-2.9-1.4-5.3-3.8-6.7-6.7c-1-1.9-1.2-3-1.2-6.7c0-5,0.9-7.5,3.8-10.5l1.6-1.7l3,7.1C123.5,222.8,125.3,226.4,125.8,226.8z"/><path fill="#000000" d="M116.9,113.2v3.7h3.7h3.7v-3.7v-3.7h-3.7h-3.7V113.2z"/><path fill="#000000" d="M131.7,113.2v3.7h3.7h3.7v-3.7v-3.7h-3.7h-3.7V113.2z"/><path fill="#000000" d="M109.5,128v3.7h3.7h3.7V128v-3.7h-3.7h-3.7V128z"/><path fill="#000000" d="M124.3,128v3.7h3.7h3.7V128v-3.7H128h-3.7V128z"/><path fill="#000000" d="M139.1,128v3.7h3.7h3.7V128v-3.7h-3.7h-3.7V128z"/><path fill="#000000" d="M116.9,142.7v3.7h3.7h3.7v-3.7v-3.7h-3.7h-3.7V142.7z"/><path fill="#000000" d="M131.7,142.7v3.7h3.7h3.7v-3.7v-3.7h-3.7h-3.7V142.7z"/></g></g></g>
</svg>