<?xml version="1.0" encoding="utf-8"?>
<!-- Svg Vector Icons : http://www.onlinewebfonts.com/icon -->
<!DOCTYPE svg PUBLIC "-//W3C//DTD SVG 1.1//EN" "http://www.w3.org/Graphics/SVG/1.1/DTD/svg11.dtd">
<svg version="1.1" xmlns="http://www.w3.org/2000/svg" xmlns:xlink="http://www.w3.org/1999/xlink" x="0px" y="0px" viewBox="0 0 256 256" enable-background="new 0 0 256 256" xml:space="preserve">
<metadata> Svg Vector Icons : http://www.onlinewebfonts.com/icon </metadata>
<g><g><g><path fill="#000000" d="M88.8,10.5c-2.5,0.8-6.5,4.9-7.3,7.5c-0.4,1.4-0.6,11-0.6,26.6v24.5H50.1c-28.7,0-31.1,0.1-33.1,1.1c-2.8,1.3-5.6,4.4-6.3,7.1c-0.4,1.4-0.6,15.1-0.6,39.3v37.1l1.6,3c1.1,2.2,2.2,3.4,4.2,4.7l2.7,1.7H128h109.5l2.7-1.7c2-1.2,3.2-2.5,4.3-4.7l1.6-3l-0.1-68l-0.2-67.9l-1.6-2.3c-0.8-1.3-2.5-3-3.8-3.8l-2.3-1.6l-73.7-0.1C118.3,10,89.9,10.2,88.8,10.5z M128.1,52.4c0.2,18.5,0.2,19.4,1.4,21.5c1.5,2.8,3.2,4.4,5.8,5.5c1.8,0.7,5.9,0.8,28.3,0.8c24.3,0,26.4-0.1,28.5-1.1c3-1.4,5.6-4.6,6.3-7.9c0.3-1.6,0.6-10.2,0.6-20.4V33.2h11.9h11.9v53.5v53.5h-59.3h-59.3V86.7V33.2H116h11.9L128.1,52.4z M175.6,45.1V57h-12.2h-12.2V45.1V33.2h12.2h12.2V45.1z M45.5,104.1v11.6h11.6h11.6v-11.6V92.5h6.1h6.1v23.8v23.8H57.1H33.3v-23.8V92.5h6.1h6.1L45.5,104.1L45.5,104.1z"/><path fill="#000000" d="M10,187.2v11.6h11.9h11.9v11.9v11.9H21.9H10v11.6v11.6h118h118v-11.6v-11.6h-11.9h-11.9v-11.9v-11.9h11.9H246v-11.6v-11.6H128H10V187.2z M80.9,210.7v11.9H69H57.1v-11.9v-11.9H69h11.9V210.7z M151.8,210.7v11.9H128h-23.8v-11.9v-11.9H128h23.8V210.7z M198.9,210.7v11.9H187h-11.9v-11.9v-11.9H187h11.9V210.7z"/></g></g></g>
</svg>