<?xml version="1.0" encoding="utf-8"?>
<!-- Svg Vector Icons : http://www.onlinewebfonts.com/icon -->
<!DOCTYPE svg PUBLIC "-//W3C//DTD SVG 1.1//EN" "http://www.w3.org/Graphics/SVG/1.1/DTD/svg11.dtd">
<svg version="1.1" xmlns="http://www.w3.org/2000/svg" xmlns:xlink="http://www.w3.org/1999/xlink" x="0px" y="0px" viewBox="0 0 256 256" enable-background="new 0 0 256 256" xml:space="preserve">
<metadata> Svg Vector Icons : http://www.onlinewebfonts.com/icon </metadata>
<g><g><g><path fill="#000000" d="M186.4,26.6c-9.4,1.2-15.5,3-22.2,6.6c-17,9.2-28,26.2-29.1,45.1c-0.3,5.6-0.3,5.9,1.2,7.6c1.2,1.5,1.9,1.7,4.2,1.7c4.1,0,5.2-1.6,5.8-8c1.3-16.5,10.6-30.3,25.1-37.3c6.6-3.2,10.6-4,19.2-4c8.5,0,12.6,0.8,19.2,4c14.4,7,23.7,20.9,25.1,37.3c0.5,6.4,1.7,8,5.8,8c2.3,0,3-0.3,4.2-1.7c1.5-1.6,1.5-1.9,1.2-7.6c-1.4-24.5-19.7-45.5-44-50.5C197.7,26.9,189.2,26.3,186.4,26.6z"/><path fill="#000000" d="M185.6,51.8c-10.6,1.6-20.1,9.4-24,19.6c-0.8,2-1.4,5.3-1.6,8c-0.3,4.4-0.2,4.8,1.2,6.4c1.2,1.5,1.9,1.7,4.2,1.7c3.7,0,5.2-1.7,5.7-6.7c0.8-7.3,5.1-13.6,11.3-16.5c2.2-1,3.8-1.3,8-1.3c4.1,0,5.8,0.3,8,1.3c6.3,2.8,10.5,9.1,11.3,16.5c0.5,4.9,2,6.7,5.7,6.7c2.3,0,3-0.3,4.2-1.7c1.4-1.6,1.5-2,1.2-6.4c-0.7-10.7-7.3-20.3-17-24.9C198.3,52,191.5,50.9,185.6,51.8z"/><path fill="#000000" d="M188,77.1c-1,0.4-2.1,1.3-2.4,2c-0.4,0.8-0.6,8.8-0.6,24.1v23h-78.4c-49.9,0-79.5,0.2-81.5,0.6c-6.1,1.2-10.5,4.4-13.5,10c-1.3,2.5-1.3,2.5-1.5,31.8c-0.1,25.8-0.1,29.7,0.8,32.1c1.3,3.8,5.8,8.7,9.7,10.5l3.1,1.4H128h104.4l3.1-1.4c4-1.8,8.3-6.5,9.6-10.5c0.9-2.7,1-6.3,1-31c0-16.5-0.2-28.8-0.6-30c-0.9-3.3-3.8-7.4-6.7-9.5c-4.9-3.4-5.3-3.5-24.8-3.8l-17.9-0.2v-22.9c0-15.3-0.2-23.4-0.6-24.2c-0.5-1-3.8-2.8-5-2.8C190.1,76.3,189.1,76.7,188,77.1z M159.9,169.6v31.7H92.8c-74.8,0-69.3,0.3-71-3.9c-1.2-2.9-1.2-53,0.1-55.6c2-4.1-3.4-3.8,71.1-3.8h67V169.6z M232.5,139.9l2.2,2l0.2,26.1c0.1,14.3,0,26.9-0.2,28c-0.2,1.2-1.2,2.7-2.2,3.7l-1.7,1.6h-29.9H171v-31.7v-31.7h29.7h29.7L232.5,139.9z"/><path fill="#000000" d="M40.5,168.7c-3.7,1.2-5.6,4.2-5.6,9.4c0,6.2,2.6,9.1,8.6,9.6c4.4,0.4,8.3-1.2,9.7-3.9c1.3-2.6,1.3-8.5-0.1-11.3C51.5,168.9,45.7,167.2,40.5,168.7z"/><path fill="#000000" d="M73.5,168.7c-3.9,1.2-6,6-5.2,11.9c0.8,5.2,4.9,7.7,11.3,7.1c4-0.4,5.8-1.6,7.2-4.7c2.2-4.9,0.6-11.9-3.3-13.7C81.3,168.3,76,168,73.5,168.7z"/><path fill="#000000" d="M106,169.2c-3.2,1.5-4.4,3.9-4.4,8.8c0,5.1,1.2,7.3,4.7,8.8c3.3,1.5,8.8,1.2,11.2-0.5c4.8-3.5,4.8-13.1,0-16.6C115.1,168,109.2,167.8,106,169.2z"/><path fill="#000000" d="M29.3,218.8c-1.7,0.9-3.1,4-2.7,6.2c0.2,1,1,2.4,1.8,3.1c1.4,1.3,1.6,1.3,16.3,1.3h14.8l1.7-1.9c1.8-2,2.1-3.8,1-6.2c-1.3-3-2.7-3.2-17.7-3.1C35.9,218.2,30.1,218.4,29.3,218.8z"/><path fill="#000000" d="M196.1,219c-2.6,1.5-3.6,4.7-2.3,7.5c1.3,2.8,2.5,3,18,3h14.5l1.5-1.6c2.3-2.3,2.2-5.9-0.3-8.1l-1.8-1.6h-14.1C200.9,218.2,197.1,218.4,196.1,219z"/></g></g></g>
</svg>