<?xml version="1.0" encoding="utf-8"?>
<!-- Svg Vector Icons : http://www.onlinewebfonts.com/icon -->
<!DOCTYPE svg PUBLIC "-//W3C//DTD SVG 1.1//EN" "http://www.w3.org/Graphics/SVG/1.1/DTD/svg11.dtd">
<svg version="1.1" xmlns="http://www.w3.org/2000/svg" xmlns:xlink="http://www.w3.org/1999/xlink" x="0px" y="0px" viewBox="0 0 256 256" enable-background="new 0 0 256 256" xml:space="preserve">
<metadata> Svg Vector Icons : http://www.onlinewebfonts.com/icon </metadata>
<g><g><g><path fill="#000000" d="M173.2,37.3c-0.9,0.5-2.1,1.6-2.6,2.4c-2.6,4-98,169.8-98.4,171.1c-0.6,1.8,0.1,4.5,1.6,6.4c2,2.6,6.2,3.3,9.3,1.5c1.7-0.9,5.7-7.7,51.2-86.7c27.2-47.1,49.6-86.4,49.8-87.2c0.4-1.9-0.8-5.1-2.3-6.5C179.5,36.1,175.8,35.7,173.2,37.3z"/><path fill="#000000" d="M66,70.6C65.3,71,52.5,83.5,37.6,98.3c-29.3,29.4-28.1,28-27.3,32.3c0.2,1.6,3.5,5,28,29.5c24.8,24.8,27.9,27.7,29.5,28.1c5.4,1,10.1-4,8.7-9.2c-0.5-1.7-3.8-5.2-24.6-26l-24-24l24-24.1c26-26,25.4-25.2,24.5-29.3C75.4,71.1,70.3,68.7,66,70.6z"/><path fill="#000000" d="M183.3,70.8c-2,1-3.2,2.6-3.7,4.9c-0.8,3.8-1.2,3.3,24.6,29.2l24.1,24.1L204.2,153c-20.8,20.9-24.1,24.4-24.6,26c-1.5,5.2,3.2,10.1,8.7,9.2c1.6-0.3,4.7-3.3,29.5-28.1c24.5-24.5,27.8-27.9,28-29.5c0.8-4.3,2-2.9-27.3-32.3c-14.9-14.9-27.6-27.4-28.3-27.8C188.4,69.7,185.2,69.8,183.3,70.8z"/></g></g></g>
</svg>