<?xml version="1.0" encoding="utf-8"?>
<!-- Svg Vector Icons : http://www.onlinewebfonts.com/icon -->
<!DOCTYPE svg PUBLIC "-//W3C//DTD SVG 1.1//EN" "http://www.w3.org/Graphics/SVG/1.1/DTD/svg11.dtd">
<svg version="1.1" xmlns="http://www.w3.org/2000/svg" xmlns:xlink="http://www.w3.org/1999/xlink" x="0px" y="0px" viewBox="0 0 256 256" enable-background="new 0 0 256 256" xml:space="preserve">
<metadata> Svg Vector Icons : http://www.onlinewebfonts.com/icon </metadata>
<g><g><g><path fill="#000000" d="M115.3,34.8c-27.3,2.1-53,10.9-75.6,25.8c-9.3,6.1-15.1,10.8-23,18.6c-5.9,5.7-6.7,6.7-6.7,8.4c0,1.4,0.5,2.5,1.5,3.4c2.5,2.5,3.9,2,9.9-3.7c11.7-11,20.3-17.5,32.2-24.2c22.1-12.6,47-19.1,73.6-19.2c17.5,0,30.7,2.1,47.5,7.6c21.8,7.1,42.1,19.5,58.5,35.6c3,3,6,5.7,6.5,6c2.8,1.5,6.4-0.9,6.4-4.3c0-1.7-0.9-2.8-7.5-9.3c-21.8-21.4-50.3-36.3-80.2-42.1C144.5,34.8,128.4,33.8,115.3,34.8z"/><path fill="#000000" d="M118.9,84.6c-29.1,3.1-53.2,14-72.1,32.7c-4.8,4.7-5.5,5.7-5.5,7.4c0,1.4,0.5,2.5,1.5,3.4c2.4,2.4,4.1,1.9,8.8-2.5c10-9.6,18.8-15.9,29.6-21.1c37.9-18.4,82.4-12.7,115,14.6c3,2.4,6.5,5.8,8.1,7.4c3.4,3.7,4.7,4.4,7,4c2.1-0.5,3.5-2.3,3.5-4.7c0-1.5-1.1-2.8-6.6-8.3C191,100.7,170.4,90.2,146.3,86C139.7,84.9,124,84.1,118.9,84.6z"/><path fill="#000000" d="M113.5,139.2c-13.1,2.8-24.2,8.7-33.8,18.1c-4.3,4.2-4.9,5-4.9,6.8c0,3,1.7,4.8,4.3,4.8c1.9,0,2.8-0.6,6.7-4.4c2.5-2.4,6-5.4,7.6-6.6c4.3-3.1,11.9-6.7,17.8-8.6c4.8-1.5,5.9-1.6,16.1-1.6c10.3,0,11.3,0.1,16.2,1.7c6,1.8,13.5,5.4,17.8,8.5c1.7,1.2,5.4,4.5,8.4,7.3c3,2.8,5.8,5.2,6.4,5.2c1.2,0,3.4-1.1,4.2-2.3c2.1-2.7-0.4-6.9-7.6-13.1c-8.1-7.1-18.1-12.5-28.1-15.1C136.6,137.8,121.5,137.4,113.5,139.2z"/><path fill="#000000" d="M122.4,183c-4.1,1.4-5.9,2.6-9,6c-9.6,10.6-4.9,27.6,8.8,31.7c5.2,1.6,9.3,1.2,14.5-1.3c17.9-8.7,12.2-36-7.7-36.9C126.5,182.3,123.8,182.6,122.4,183z M132.5,192.9c6.3,3.1,7.4,12.1,2.1,16.6c-3.8,3.2-8.4,3.5-12.6,0.8c-4.3-2.8-5.5-9.5-2.6-13.9C122.3,192,127.7,190.5,132.5,192.9z"/></g></g></g>
</svg>